<svg fill="#FA5252" xmlns="http://www.w3.org/2000/svg"  viewBox="0 0 64 64" width="64px" height="64px"><path d="M 12 8 C 9.791 8 8 9.791 8 12 L 8 44 C 8 46.209 9.791 48 12 48 L 44 48 C 46.209 48 48 46.209 48 44 L 48 12 C 48 9.791 46.209 8 44 8 L 12 8 z M 51 16 L 51 46 C 51 48.761 48.761 51 46 51 L 16 51 L 16 52 C 16 54.209 17.791 56 20 56 L 52 56 C 54.209 56 56 54.209 56 52 L 56 20 C 56 17.791 54.209 16 52 16 L 51 16 z M 38.960938 18 L 42 21 L 25 38 L 14 27 L 16 24 L 25 30 L 38.960938 18 z"/></svg>